<svg width="16" height="16" viewBox="0 0 16 16" fill="none" xmlns="http://www.w3.org/2000/svg">
<path fill-rule="evenodd" clip-rule="evenodd" d="M14.1098 13.7663L11.1523 7.125V3.625H12.0273V2.75H4.15226V3.625H5.02726V7.125L2.07851 13.7663C1.81601 14.3438 2.24476 15 2.87476 15H13.3223C13.9523 15 14.3723 14.3438 14.1185 13.7663H14.1098ZM4.80851 9.75L5.90226 7.125V3.625H10.2773V7.125L11.371 9.75H4.80851V9.75ZM8.52726 8H9.40226V8.875H8.52726V8V8ZM7.65226 7.125H6.77726V6.25H7.65226V7.125V7.125ZM7.65226 4.5H8.52726V5.375H7.65226V4.5V4.5ZM7.65226 1.875H6.77726V1H7.65226V1.875V1.875Z" fill="black"/>
</svg>
