<svg width="14" height="16" viewBox="0 0 14 16" fill="none" xmlns="http://www.w3.org/2000/svg">
<path fill-rule="evenodd" clip-rule="evenodd" d="M13.0667 11.2667V12.2H0V11.2667L0.681333 10.7253C1.4 10.0067 1.43733 8.34533 1.792 6.6C2.51067 3.08133 5.6 1.93333 5.6 1.93333C5.6 1.42 6.02 1 6.53333 1C7.04667 1 7.46667 1.42 7.46667 1.93333C7.46667 1.93333 10.6307 3.08133 11.3493 6.6C11.704 8.35467 11.7413 10.016 12.46 10.7253L13.076 11.2667H13.0667ZM6.53333 15C7.56933 15 8.4 14.1693 8.4 13.1333H4.66667C4.66667 14.1693 5.49733 15 6.53333 15V15Z" fill="black"/>
</svg>
