<svg width="16" height="16" viewBox="0 0 16 16" fill="none" xmlns="http://www.w3.org/2000/svg">
<path d="M12.714 9.603C12.644 9.81 12.564 10.01 12.468 10.204L13.485 12.343C13.15 12.767 12.767 13.15 12.343 13.486L10.203 12.468C10.01 12.565 9.809 12.644 9.602 12.715L8.807 14.95C8.542 14.98 8.273 15 8 15C7.728 15 7.459 14.98 7.194 14.95L6.399 12.715C6.192 12.644 5.991 12.565 5.797 12.468L3.657 13.485C3.233 13.149 2.85 12.766 2.514 12.342L3.531 10.203C3.437 10.01 3.356 9.81 3.286 9.603L1.05 8.807C1.02 8.542 1 8.273 1 8C1 7.727 1.02 7.458 1.05 7.193L3.286 6.398C3.356 6.191 3.436 5.991 3.532 5.797L2.516 3.658C2.852 3.235 3.235 2.851 3.659 2.516L5.799 3.533C5.992 3.437 6.193 3.357 6.401 3.286L7.194 1.05C7.459 1.02 7.728 1 8 1C8.273 1 8.542 1.02 8.808 1.05L9.603 3.286C9.81 3.356 10.01 3.436 10.204 3.532L12.344 2.515C12.768 2.85 13.151 3.234 13.486 3.657L12.469 5.796C12.565 5.99 12.645 6.19 12.715 6.397L14.951 7.192C14.98 7.458 15 7.727 15 8C15 8.273 14.98 8.542 14.95 8.807L12.714 9.603V9.603ZM8 5C6.343 5 5 6.343 5 8C5 9.657 6.343 11 8 11C9.657 11 11 9.657 11 8C11 6.343 9.657 5 8 5Z" fill="black"/>
<path d="M8 9.5C8.82843 9.5 9.5 8.82843 9.5 8C9.5 7.17157 8.82843 6.5 8 6.5C7.17157 6.5 6.5 7.17157 6.5 8C6.5 8.82843 7.17157 9.5 8 9.5Z" fill="black"/>
</svg>
