<svg enable-background="new 0 0 16 14" viewBox="0 0 16 14" xmlns="http://www.w3.org/2000/svg"><path d="m14.8.1c-.2-.2-.5-.2-.7 0l-2.1 2.2c-1.1-.8-2.4-1.3-3.9-1.3-5.1-.1-8.1 5.9-8.1 5.9s1.2 2.3 3.3 4.1l-2.1 2.1c-.2.2-.2.5 0 .7s.5.2.7 0l12.9-12.9c.2-.2.2-.6 0-.8zm-5.8 5.1c-.3-.2-.6-.3-1-.3-1.1 0-2 .9-2 2 0 .4.1.7.3 1l-1.4 1.5c-.6-.7-.9-1.5-.9-2.5 0-2.2 1.8-4 4-4 .9 0 1.8.3 2.5.9z"/><path d="m13.9 3.9-2 2c.1.3.1.7.1 1 0 2.2-1.8 4-4 4-.4 0-.7 0-1-.1l-1.6 1.6c.8.4 1.7.6 2.7.6 4.9 0 7.9-6 7.9-6-.6-1.2-1.3-2.2-2.1-3.1z"/></svg>