<svg width="16" height="16" viewBox="0 0 16 16" fill="none" xmlns="http://www.w3.org/2000/svg">
<path d="M14.0045 5.48112C14.0068 5.01861 13.8803 4.56459 13.6393 4.1699C13.3981 3.77521 13.0519 3.45543 12.6393 3.24638C12.2267 3.03733 11.7641 2.94727 11.3033 2.98627C10.8423 3.02528 10.4015 3.19182 10.0299 3.46724C9.65833 3.74265 9.37075 4.11606 9.19942 4.54566C9.02809 4.97527 8.97966 5.44409 9.05971 5.89963C9.13976 6.35516 9.34497 6.77946 9.65248 7.12491C9.96 7.47042 10.3577 7.72346 10.8008 7.85573C10.6372 8.18828 10.384 8.46869 10.0698 8.66527C9.75559 8.8619 9.3928 8.967 9.02211 8.96879H7.02916C6.29136 8.97138 5.58094 9.24847 5.0362 9.74605V4.93206C5.64108 4.80859 6.17857 4.46492 6.54447 3.96767C6.91037 3.47043 7.07858 2.85504 7.01653 2.24081C6.95449 1.62658 6.66658 1.05727 6.20863 0.643248C5.75068 0.22923 5.15532 0 4.53796 0C3.9206 0 3.32524 0.22923 2.86728 0.643248C2.40933 1.05727 2.12143 1.62658 2.05938 2.24081C1.99732 2.85504 2.16556 3.47043 2.53145 3.96767C2.89734 4.46492 3.43484 4.80859 4.03972 4.93206V11.0106C3.43597 11.126 2.89534 11.4585 2.51981 11.9451C2.14428 12.4318 1.9598 13.039 2.00117 13.6523C2.04254 14.2656 2.3069 14.8426 2.74439 15.2743C3.18188 15.7061 3.76225 15.9629 4.37604 15.9963C4.98983 16.0296 5.5946 15.8372 6.07628 15.4553C6.55797 15.0735 6.88327 14.5285 6.99082 13.9233C7.09838 13.3181 6.98079 12.6945 6.66017 12.17C6.33957 11.6455 5.83813 11.2565 5.25044 11.0763C5.41436 10.7441 5.66763 10.4642 5.98183 10.2679C6.29603 10.0716 6.6587 9.96687 7.02916 9.96527H9.02211C9.64391 9.96241 10.2493 9.76571 10.7541 9.40259C11.2588 9.03948 11.6377 8.52802 11.8382 7.93943C12.4354 7.86091 12.984 7.56854 13.3824 7.11654C13.7807 6.66454 14.0017 6.08356 14.0045 5.48112ZM3.04324 2.49168C3.04324 2.19605 3.1309 1.90707 3.29514 1.66126C3.45939 1.41546 3.69283 1.22388 3.96595 1.11074C4.23908 0.997616 4.53962 0.968014 4.82956 1.02569C5.11951 1.08336 5.38584 1.22572 5.59488 1.43476C5.80393 1.6438 5.94628 1.91013 6.00396 2.20008C6.06163 2.49003 6.03203 2.79057 5.9189 3.06369C5.80576 3.33681 5.61418 3.57026 5.36838 3.7345C5.12257 3.89874 4.83359 3.9864 4.53796 3.9864C4.14153 3.9864 3.76135 3.82892 3.48103 3.54861C3.20072 3.2683 3.04324 2.88811 3.04324 2.49168ZM6.03268 13.4529C6.03268 13.7486 5.94501 14.0375 5.78077 14.2833C5.61653 14.5291 5.38309 14.7207 5.10996 14.8339C4.83684 14.947 4.5363 14.9766 4.24636 14.919C3.95641 14.8613 3.69008 14.7189 3.48103 14.5099C3.27199 14.3008 3.12964 14.0345 3.07196 13.7446C3.01429 13.4546 3.04389 13.1541 3.15702 12.881C3.27015 12.6078 3.46174 12.3744 3.70754 12.2101C3.95334 12.0459 4.24233 11.9582 4.53796 11.9582C4.93438 11.9582 5.31457 12.1157 5.59488 12.396C5.8752 12.6764 6.03268 13.0565 6.03268 13.4529ZM11.5133 6.97584C11.2177 6.97584 10.9287 6.88815 10.6829 6.72393C10.4371 6.55969 10.2455 6.32624 10.1324 6.05312C10.0193 5.78 9.98963 5.47946 10.0473 5.18952C10.105 4.89957 10.2473 4.63323 10.4564 4.42419C10.6654 4.21515 10.9318 4.0728 11.2217 4.01512C11.5116 3.95745 11.8122 3.98705 12.0853 4.10018C12.3585 4.21331 12.5919 4.40489 12.7561 4.6507C12.9203 4.8965 13.008 5.18549 13.008 5.48112C13.008 5.87754 12.8505 6.25773 12.5702 6.53804C12.2899 6.81833 11.9097 6.97584 11.5133 6.97584Z" fill="white"/>
</svg>
