<svg width="16" height="16" viewBox="0 0 16 16" fill="none" xmlns="http://www.w3.org/2000/svg">
<path fill-rule="evenodd" clip-rule="evenodd" d="M7.49999 1C6.21442 1 4.95771 1.38123 3.88879 2.09546C2.81987 2.80969 1.98674 3.82485 1.49478 5.01257C1.00281 6.20029 0.874098 7.50719 1.1249 8.76807C1.37571 10.0289 1.99476 11.1872 2.9038 12.0962C3.81284 13.0052 4.97105 13.6243 6.23193 13.8751C7.4928 14.1259 8.7997 13.9972 9.98742 13.5052C11.1751 13.0133 12.1903 12.1801 12.9045 11.1112C13.6188 10.0423 14 8.78558 14 7.5C14 5.77609 13.3152 4.1228 12.0962 2.90381C10.8772 1.68482 9.2239 1 7.49999 1ZM7.49999 13C6.4122 13 5.3488 12.6775 4.44433 12.0731C3.53986 11.4688 2.83492 10.6097 2.41863 9.60474C2.00235 8.59974 1.89343 7.4939 2.10565 6.427C2.31786 5.36011 2.84171 4.38015 3.61089 3.61096C4.38008 2.84177 5.3601 2.31793 6.427 2.10571C7.49389 1.89349 8.59974 2.00242 9.60473 2.4187C10.6097 2.83498 11.4687 3.53987 12.0731 4.44434C12.6774 5.34881 13 6.4122 13 7.5C13 8.95869 12.4205 10.3576 11.3891 11.389C10.3576 12.4205 8.95868 13 7.49999 13ZM8 4H7V9H8V4ZM7 10H8V11H7V10Z" fill="white"/>
</svg>
