<svg width="16" height="16" viewBox="0 0 16 16" fill="none" xmlns="http://www.w3.org/2000/svg">
<path fill-rule="evenodd" clip-rule="evenodd" d="M11.6683 8.65806C11.3294 8.9916 11.0691 9.36278 10.8861 9.77172C10.708 10.1792 10.6185 10.6219 10.6185 11.1009V12.7012C10.6185 12.8807 10.5847 13.0503 10.5164 13.2091C10.4488 13.3661 10.3561 13.5038 10.2382 13.6213C10.1202 13.7388 9.98214 13.8311 9.82473 13.8984C9.66555 13.9663 9.49556 14 9.31573 14H7.70955C7.52973 14 7.35973 13.9663 7.20055 13.8984C7.04314 13.8311 6.90503 13.7388 6.78711 13.6213C6.66918 13.5038 6.57644 13.3661 6.50891 13.2091C6.44061 13.0503 6.40676 12.8807 6.40676 12.7012V11.1009C6.40676 10.622 6.31521 10.1795 6.13303 9.77209C5.95432 9.36336 5.69582 8.99156 5.35703 8.65806C4.92218 8.22903 4.58646 7.75003 4.35111 7.22134C4.11506 6.69107 3.9975 6.11672 3.9975 5.49953C3.9975 5.08664 4.05091 4.68802 4.15798 4.30397C4.26478 3.92089 4.41657 3.56286 4.61345 3.23018C4.81007 2.89377 5.04527 2.58911 5.31896 2.31641C5.59253 2.04383 5.89608 1.80953 6.22945 1.61364C6.56729 1.41764 6.92896 1.2662 7.31328 1.15983C7.69855 1.0532 8.09844 1 8.51264 1C8.92684 1 9.32673 1.0532 9.712 1.15983C10.0963 1.2662 10.4555 1.41739 10.7893 1.61351C11.1269 1.80938 11.4326 2.0437 11.7063 2.31641C11.98 2.5891 12.2152 2.89376 12.4118 3.23016C12.6087 3.56285 12.7605 3.92088 12.8673 4.30397C12.9744 4.68802 13.0278 5.08664 13.0278 5.49953C13.0278 6.11672 12.9102 6.69107 12.6742 7.22134C12.4388 7.75003 12.1031 8.22903 11.6683 8.65806ZM9.61912 10.5H7.40616V12.7012C7.40616 12.7823 7.43469 12.8512 7.49638 12.9127C7.55808 12.9741 7.62757 13.0028 7.70955 13.0028H9.31573C9.39772 13.0028 9.4672 12.9741 9.5289 12.9127C9.59059 12.8512 9.61912 12.7823 9.61912 12.7012V10.5Z" fill="white"/>
</svg>
