<svg width="16" height="16" viewBox="0 0 16 16" fill="none" xmlns="http://www.w3.org/2000/svg">
<path d="M8.00025 1C6.61578 1 5.2624 1.41054 4.11126 2.17971C2.96011 2.94888 2.0629 4.04213 1.53309 5.32122C1.00328 6.6003 0.864654 8.00776 1.13475 9.36563C1.40485 10.7235 2.07153 11.9708 3.0505 12.9497C4.02947 13.9287 5.27675 14.5954 6.63462 14.8655C7.99248 15.1356 9.39995 14.997 10.679 14.4672C11.9581 13.9373 13.0514 13.0401 13.8205 11.889C14.5897 10.7378 15.0002 9.38447 15.0002 8C15.0002 6.14348 14.2627 4.36301 12.95 3.05025C11.6372 1.7375 9.85676 1 8.00025 1ZM9.84525 13.707H9.79125C9.75045 13.7092 9.70963 13.7031 9.67128 13.689C9.63294 13.6749 9.59787 13.6531 9.56825 13.625C9.54086 13.5961 9.5195 13.562 9.50542 13.5247C9.49135 13.4875 9.48483 13.4478 9.48625 13.408V12.588C9.49025 12.3153 9.49225 12.04 9.49225 11.762C9.49138 11.5588 9.46175 11.3568 9.40425 11.162C9.34981 10.9653 9.24015 10.7883 9.08825 10.652C9.4949 10.6127 9.89464 10.5202 10.2772 10.377C10.5999 10.2543 10.8917 10.0625 11.1322 9.815C11.3695 9.56557 11.5461 9.26477 11.6482 8.936C11.7725 8.534 11.8316 8.11469 11.8232 7.694C11.8254 7.40014 11.7739 7.10836 11.6712 6.833C11.5673 6.55552 11.41 6.30107 11.2082 6.084C11.2515 5.97432 11.283 5.86034 11.3022 5.744C11.3218 5.6277 11.3315 5.50994 11.3312 5.392C11.3314 5.24016 11.314 5.08882 11.2792 4.941C11.2474 4.78966 11.2043 4.64091 11.1502 4.496C11.1296 4.48781 11.1075 4.48373 11.0852 4.484H11.0212C10.8877 4.48555 10.7552 4.50747 10.6282 4.549C10.4881 4.58965 10.351 4.64045 10.2182 4.701C10.0859 4.76025 9.95699 4.82702 9.83225 4.901C9.70725 4.975 9.59625 5.046 9.49825 5.112C8.51695 4.8385 7.47955 4.8385 6.49825 5.112C6.39825 5.046 6.28925 4.975 6.16425 4.901C6.03789 4.82621 5.90697 4.75941 5.77225 4.701C5.63971 4.63901 5.50223 4.58816 5.36125 4.549C5.23666 4.50775 5.10648 4.48583 4.97525 4.484H4.91125C4.88934 4.48381 4.8676 4.48789 4.84725 4.496C4.79217 4.64109 4.74707 4.78977 4.71225 4.941C4.68113 5.08932 4.66538 5.24045 4.66525 5.392C4.6653 5.50997 4.67534 5.62772 4.69525 5.744C4.71411 5.86031 4.74528 5.97428 4.78825 6.084C4.58682 6.30111 4.42987 6.55556 4.32625 6.833C4.2233 7.1083 4.17145 7.40008 4.17325 7.694C4.16505 8.11235 4.22241 8.5294 4.34325 8.93C4.44905 9.25892 4.62512 9.5609 4.85925 9.815C5.10123 10.0608 5.39266 10.2523 5.71425 10.377C6.09515 10.523 6.49414 10.6165 6.90025 10.655C6.78679 10.7576 6.69675 10.8835 6.63625 11.024C6.57869 11.163 6.53936 11.3089 6.51925 11.458C6.30538 11.5606 6.07145 11.6146 5.83425 11.616C5.61385 11.6245 5.39643 11.5629 5.21325 11.44C5.03728 11.3099 4.8882 11.1469 4.77425 10.96C4.72344 10.8814 4.6666 10.8068 4.60425 10.737C4.53837 10.6637 4.46571 10.5967 4.38725 10.537C4.30993 10.4792 4.22516 10.4321 4.13525 10.397C4.04666 10.3581 3.95098 10.338 3.85425 10.338C3.83082 10.3386 3.80744 10.3406 3.78425 10.344C3.75254 10.3441 3.72096 10.3481 3.69025 10.356C3.66305 10.3631 3.63733 10.375 3.61425 10.391C3.60385 10.3968 3.59515 10.4052 3.58901 10.4153C3.58287 10.4255 3.5795 10.4371 3.57925 10.449C3.58179 10.4771 3.59045 10.5042 3.60462 10.5286C3.61879 10.5529 3.63811 10.5739 3.66125 10.59C3.71525 10.6333 3.76025 10.6667 3.79625 10.69L3.81325 10.702C3.89148 10.762 3.96596 10.8268 4.03625 10.896C4.10202 10.9532 4.16077 11.018 4.21125 11.089C4.26405 11.158 4.30931 11.2324 4.34625 11.311C4.38891 11.389 4.43391 11.479 4.48125 11.581C4.5906 11.8573 4.78542 12.0913 5.03725 12.249C5.30162 12.3908 5.59833 12.4615 5.89825 12.454C6.00018 12.454 6.10202 12.448 6.20325 12.436C6.30325 12.42 6.40325 12.403 6.50325 12.383V13.4C6.50505 13.4411 6.49815 13.4821 6.48298 13.5204C6.46781 13.5587 6.44473 13.5933 6.41525 13.622C6.38562 13.6501 6.35056 13.6719 6.31221 13.686C6.27387 13.7001 6.23304 13.7062 6.19225 13.704H6.15625C4.79598 13.2646 3.63731 12.3539 2.88887 11.136C2.14042 9.9181 1.8514 8.473 2.07383 7.06093C2.29626 5.64885 3.01554 4.36259 4.10214 3.43375C5.18874 2.50492 6.57126 1.99455 8.00075 1.99455C9.43023 1.99455 10.8128 2.50492 11.8994 3.43375C12.986 4.36259 13.7052 5.64885 13.9277 7.06093C14.1501 8.473 13.8611 9.9181 13.1126 11.136C12.3642 12.3539 11.2055 13.2646 9.84525 13.704V13.707Z" fill="white"/>
</svg>
