<svg width="14" height="16" viewBox="0 0 14 16" fill="none" xmlns="http://www.w3.org/2000/svg">
<path d="M4.75 4.95312C5.29688 5.59375 6.09375 6 7 6C7.90625 6 8.70312 5.59375 9.25 4.95312C9.59375 5.57812 10.25 6 11 6C12.1094 6 13 5.10938 13 4C13 2.89062 12.1094 2 11 2C10.5938 2 10.2344 2.125 9.92188 2.32812C9.60938 1 8.42188 0 7 0C5.57812 0 4.39062 1 4.07812 2.32812C3.76562 2.125 3.40625 2 3 2C1.89062 2 1 2.89062 1 4C1 5.10938 1.89062 6 3 6C3.75 6 4.40625 5.57812 4.75 4.95312ZM9.95312 3.4375C10.1562 3.0625 10.5469 2.79688 11 2.79688C11.6562 2.79688 12.2031 3.34375 12.2031 4C12.2031 4.65625 11.6562 5.20312 11 5.20312C10.3438 5.20312 9.82812 4.67188 9.8125 4.03125C9.875 3.84375 9.92188 3.64062 9.95312 3.4375ZM7 0.984375C8.10938 0.984375 9.01562 1.89062 9.01562 3C9.01562 4.10938 8.10938 5.01562 7 5.01562C5.89062 5.01562 4.98438 4.10938 4.98438 3C4.98438 1.89062 5.89062 0.984375 7 0.984375ZM3 5.20312C2.34375 5.20312 1.79688 4.65625 1.79688 4C1.79688 3.34375 2.34375 2.79688 3 2.79688C3.45312 2.79688 3.84375 3.0625 4.04688 3.4375C4.07812 3.64062 4.125 3.84375 4.1875 4.03125C4.17188 4.67188 3.65625 5.20312 3 5.20312ZM13 6H1C0.453125 6 0 6.45312 0 7V10C0 10.5469 0.453125 11 1 11V13C1 13.5469 1.45312 14 2 14H3C3.54688 14 4 13.5469 4 13V12H5V15C5 15.5469 5.45312 16 6 16H8C8.54688 16 9 15.5469 9 15V12H10V13C10 13.5469 10.4531 14 11 14H12C12.5469 14 13 13.5469 13 13V11C13.5469 11 14 10.5469 14 10V7C14 6.45312 13.5469 6 13 6ZM3 13H2V10H1V7H3V13ZM10 11H9V9H8V15H6V9H5V11H4V7H10V11ZM13 10H12V13H11V7H13V10Z" fill="black"/>
</svg>