<svg width="15" height="16" viewBox="0 0 15 16" fill="none" xmlns="http://www.w3.org/2000/svg">
<path fill-rule="evenodd" clip-rule="evenodd" d="M9.6875 11.5H12.3125V2.75H9.6875V11.5V11.5ZM6.1875 9.75H8.8125V2.75H6.1875V9.75V9.75ZM2.6875 13.25H5.3125V2.75H2.6875V13.25V13.25ZM1.8125 14.125H13.1875V1.875H1.8125V14.125V14.125ZM13.1875 1H1.8125C1.3295 1 0.9375 1.392 0.9375 1.875V14.125C0.9375 14.608 1.3295 15 1.8125 15H13.1875C13.6705 15 14.0625 14.608 14.0625 14.125V1.875C14.0625 1.392 13.6705 1 13.1875 1V1V1Z" fill="black"/>
</svg>
