<svg width="16" height="16" viewBox="0 0 16 16" fill="none" xmlns="http://www.w3.org/2000/svg">
<path d="M9.95661 1C8.95694 0.998967 7.97833 1.28695 7.13851 1.82921C6.29869 2.37147 5.63348 3.14487 5.22304 4.0564C4.8126 4.96792 4.6744 5.97872 4.82507 6.96697C4.97573 7.95522 5.40886 8.87885 6.07227 9.62666L1 15.3777L1.7071 16L6.76056 10.2677C7.41106 10.7772 8.17388 11.1239 8.9855 11.2789C9.79711 11.4338 10.634 11.3925 11.4265 11.1585C12.2189 10.9245 12.944 10.5045 13.5412 9.93348C14.1384 9.36249 14.5906 8.65707 14.86 7.87594C15.1294 7.09481 15.2081 6.26062 15.0898 5.44286C14.9715 4.6251 14.6595 3.84745 14.1798 3.17471C13.7 2.50197 13.0665 1.95361 12.3319 1.57533C11.5973 1.19704 10.7829 0.999803 9.95661 1V1ZM9.95661 10.428C9.1175 10.428 8.29724 10.1792 7.59955 9.71297C6.90186 9.24679 6.35806 8.58419 6.03694 7.80896C5.71583 7.03372 5.63184 6.18068 5.79555 5.3577C5.95925 4.53471 6.36333 3.77875 6.95667 3.18541C7.55001 2.59207 8.30597 2.18799 9.12896 2.02429C9.95194 1.86058 10.805 1.94463 11.5802 2.26574C12.3554 2.58685 13.018 3.1306 13.4842 3.82829C13.9504 4.52598 14.1992 5.3463 14.1992 6.18541C14.2005 6.7429 14.0916 7.29515 13.8788 7.81045C13.666 8.32575 13.3536 8.79396 12.9594 9.18817C12.5652 9.58238 12.097 9.89484 11.5817 10.1076C11.0664 10.3204 10.5141 10.4293 9.95661 10.428V10.428Z" fill="white"/>
</svg>
