<svg width="16" height="16" viewBox="0 0 16 16" fill="none" xmlns="http://www.w3.org/2000/svg">
<path d="M8 1C4.134 1 1 4.134 1 8C1 11.866 4.134 15 8 15C11.866 15 15 11.866 15 8C15 4.134 11.866 1 8 1ZM10.45 3.8C11.03 3.8 11.5 4.427 11.5 5.2C11.5 5.973 11.03 6.6 10.45 6.6C9.87 6.6 9.4 5.973 9.4 5.2C9.4 4.427 9.87 3.8 10.45 3.8V3.8ZM5.55 3.8C6.13 3.8 6.6 4.427 6.6 5.2C6.6 5.973 6.13 6.6 5.55 6.6C4.97 6.6 4.5 5.973 4.5 5.2C4.5 4.427 4.97 3.8 5.55 3.8V3.8ZM12.451 9.575C11.783 11.459 9.995 12.725 8 12.725C6.005 12.725 4.216 11.459 3.549 9.576C3.452 9.303 3.595 9.003 3.868 8.906C4.143 8.809 4.442 8.953 4.538 9.226C5.057 10.691 6.448 11.676 7.999 11.676C9.55 11.676 10.94 10.692 11.46 9.226C11.557 8.953 11.86 8.809 12.13 8.906C12.404 9.002 12.548 9.302 12.451 9.575V9.575Z" fill="black"/>
</svg>
