<svg width="16" height="16" viewBox="0 0 16 16" fill="none" xmlns="http://www.w3.org/2000/svg">
<path fill-rule="evenodd" clip-rule="evenodd" d="M4.11101 2.17969C5.26216 1.41052 6.61552 1 7.99999 1C9.85651 1 11.637 1.73754 12.9498 3.05029C14.2625 4.36305 15 6.14348 15 8C15 9.38447 14.5895 10.7379 13.8203 11.889C13.0511 13.0402 11.9578 13.9373 10.6788 14.4672C9.39968 14.997 7.9922 15.1356 6.63433 14.8655C5.27646 14.5954 4.02919 13.9287 3.05022 12.9497C2.07126 11.9707 1.40461 10.7235 1.13451 9.3656C0.864416 8.00773 1.00301 6.60025 1.53283 5.32117C2.06264 4.04208 2.95987 2.94886 4.11101 2.17969ZM4.66656 12.9888C5.65325 13.6481 6.8133 14 7.99999 14C9.59129 14 11.1174 13.3679 12.2426 12.2427C13.3678 11.1175 14 9.5913 14 8C14 6.81331 13.6481 5.65332 12.9888 4.66663C12.3295 3.67993 11.3924 2.91079 10.2961 2.45667C9.19972 2.00254 7.99334 1.88372 6.82946 2.11523C5.66557 2.34675 4.59649 2.91821 3.75738 3.75732C2.91826 4.59644 2.3468 5.66558 2.11529 6.82947C1.88378 7.99335 2.00259 9.19979 2.45672 10.2961C2.91084 11.3925 3.67986 12.3295 4.66656 12.9888ZM8.13 7.47L10.57 5L11.27 5.71L8.83 8.18L11.27 10.66L10.57 11.36L8.13 8.89L5.7 11.36L5 10.66L7.44 8.18L5 5.71L5.7 5L8.13 7.47Z" fill="white"/>
</svg>
