<svg width="14" height="16" viewBox="0 0 14 16" fill="none" xmlns="http://www.w3.org/2000/svg">
<path fill-rule="evenodd" clip-rule="evenodd" d="M11.9418 7.30003C12.1635 8.79336 11.7085 10.3567 10.5418 11.5C8.82683 13.1917 6.17849 13.4017 4.23016 12.13L5.59516 10.8L0.578491 10.1L1.27849 15L2.80682 13.53C5.56016 15.56 9.45683 15.3617 11.9535 12.9C13.4002 11.465 14.0652 9.57503 13.9835 7.69669L11.9418 7.30003V7.30003ZM3.44846 4.5C5.16346 2.80833 7.8118 2.59833 9.76013 3.87L8.39513 5.2L13.4118 5.9L12.7118 1L11.1835 2.47C8.43013 0.44 4.53346 0.638333 2.02513 3.1C0.578462 4.535 -0.0748711 6.425 0.00679559 8.30333L2.04846 8.71167C1.8268 7.21833 2.2818 5.64333 3.44846 4.5V4.5Z" fill="black"/>
</svg>
