<svg width="16" height="16" viewBox="0 0 16 16" fill="none" xmlns="http://www.w3.org/2000/svg">
<path d="M6 8.5H4.5V10H6V8.5Z" fill="black"/>
<path d="M11 5.244V3.667L9 5.244V2H7V5.244L5 3.667V5.244L8 7.609L11 5.244Z" fill="black"/>
<path d="M9 8.5H7V10H9V8.5Z" fill="black"/>
<path d="M11.5 8.5H10V10H11.5V8.5Z" fill="black"/>
<path d="M12.5 7V10.5H3.5V7H2.5V13.0605C2.5 13.504 2.8205 14 3.2515 14H12.6385C13.07 14 13.5 13.504 13.5 13.0605V7H12.5V7ZM7 13H5.5V11.5H7V13ZM10.5 13H9V11.5H10.5V13Z" fill="black"/>
</svg>
