<svg width="16" height="16" viewBox="0 0 16 16" fill="none" xmlns="http://www.w3.org/2000/svg">
<path fill-rule="evenodd" clip-rule="evenodd" d="M4.92 7.36127C5.1475 7.58877 6.04 8.52502 6.04 8.52502L6.53 8.01752L5.76 7.22127L7.23875 5.64627C7.23875 5.64627 6.57375 4.99877 6.8625 5.25252C7.1425 4.21127 6.88875 3.05627 6.10125 2.24252C5.31375 1.43752 4.2025 1.17502 3.205 1.44627L4.89375 3.19627L4.4475 4.91127L2.79375 5.36627L1.105 3.61627C0.833753 4.64877 1.0875 5.79502 1.875 6.60002C2.6975 7.45752 3.87875 7.70252 4.92 7.36127V7.36127ZM10.555 9.05877L8.51625 11.0713L11.8763 14.5538C12.1475 14.8425 12.515 14.9825 12.8738 14.9825C13.2325 14.9825 13.5913 14.8425 13.8713 14.5538C14.4225 13.985 14.4225 13.0663 13.8713 12.4975L10.555 9.05877V9.05877ZM15 3.21375L12.8563 1L6.53875 7.5275L7.30875 8.32375L3.5375 12.2262L2.67125 12.69L1.455 14.6763L1.76125 15L3.68625 13.74L4.1325 12.8475L7.9125 8.945L8.6825 9.74125L15 3.21375V3.21375Z" fill="black"/>
</svg>
